<?xml version="1.0" ?><svg height="48px" version="1.1" viewBox="0 0 48 48" width="48px" xmlns="http://www.w3.org/2000/svg" xmlns:sketch="http://www.bohemiancoding.com/sketch/ns" xmlns:xlink="http://www.w3.org/1999/xlink"><title/><defs/><g fill="none" fill-rule="evenodd" id="shadow" stroke="none" stroke-width="1"><g id="stackoverflow-"><path d="M24,48 C37.2548347,48 48,37.2548347 48,24 C48,10.7451653 37.2548347,0 24,0 C10.7451653,0 0,10.7451653 0,24 C0,37.2548347 10.7451653,48 24,48 Z" fill="#CE6F2D" id="stackoverflow"/><path d="M1.98681153,33.5766254 C5.48936261,41.6165214 13.2674696,47.3651616 22.4492933,47.9507067 L35.2659375,35.1340625 L33.4159363,27.9334372 L31.0537506,26.0578131 L34.928125,21.5378127 L22.6651559,12.8982809 L1.98681153,33.5766254 Z" fill="#000000" fill-opacity="0.400000006" id="stackoverflow"/><path d="M29.5473741,25.6102066 L17.2419054,23.0769231 L16.6153846,25.7038747 L30.7573703,28.6153846 L31.2773964,26.4374745 L31.971181,26.7692308 L33.2307692,23.9977835 L19.7211267,17.5384615 L18.4615385,20.3091445 L29.5473741,25.6102066 L29.5473741,25.6102066 Z M35.0769231,26.7692308 L35.0769231,35.0769231 L12.9230769,35.0769231 L12.9230769,26.7692308 L15.6923077,26.7692308 L15.6923077,32.3076923 L32.3076923,32.3076923 L32.3076923,26.7692308 L35.0769231,26.7692308 Z M16.6153846,28.6153846 L31.3846154,28.6153846 L31.3846154,31.3846154 L16.6153846,31.3846154 L16.6153846,28.6153846 Z M35.0769231,21.5702727 L33.2340978,24 L21.2307692,14.6791558 L22.5637159,12.9230769 L23.9397829,12.9230769 L35.0769231,21.5702727 Z" fill="#FFFFFF" id="stackoverflow"/></g></g></svg>